<svg width="19" height="29" viewBox="0 0 19 29" fill="none" xmlns="http://www.w3.org/2000/svg">
<path d="M9.771 0.0999978C4.742 0.0999978 0.7 4.048 0.7 9.5C0.7 13.73 3.802 18.618 6.763 22.096L7.233 24.775L7.468 28.817H12.074L12.309 24.775L12.779 22.096C15.74 18.618 18.842 13.73 18.842 9.5C18.842 4.048 14.8 0.0999978 9.771 0.0999978ZM9.771 1.04C11.134 2.45 11.792 6.116 11.792 9.5C11.792 13.025 10.993 17.96 10.288 21.156H9.254C8.549 17.96 7.75 13.025 7.75 9.5C7.75 6.116 8.408 2.45 9.771 1.04ZM1.828 9.5C1.828 5.599 3.99 2.403 7.468 1.275C5.635 2.967 4.413 5.411 4.413 9.5C4.413 13.636 6.199 17.584 7.891 21.156H7.092C4.836 18.007 1.828 13.542 1.828 9.5ZM12.45 21.156H11.651C13.343 17.584 15.129 13.636 15.129 9.5C15.129 5.411 13.907 2.967 12.074 1.275C15.552 2.403 17.714 5.599 17.714 9.5C17.714 13.542 14.706 18.007 12.45 21.156ZM11.369 24.775H8.173L7.703 22.096H11.839L11.369 24.775Z" fill="#FFFFFF"/>
</svg>
