<svg width="260" height="103" viewBox="0 0 260 103" fill="none" xmlns="http://www.w3.org/2000/svg">
<rect width="260" height="103" fill="white"/>
<path d="M68.6469 58.7534L74.1654 33.4721H86.3989L87.8997 26.2979H54.8241L53.3232 33.4721H65.5567L60.0382 58.7534H68.6469Z" fill="#222222"/>
<path d="M83.6543 63.1364H92.263L95.3497 51.8805H102.656L107.527 66.4236H116.73L111.123 50.9072C117.353 48.9051 121.232 43.5661 121.232 37.671C121.232 30.9973 115.994 26.2979 108.433 26.2979H92.263L83.6543 63.1364ZM99.4558 33.0828H106.479C110.273 33.0828 112.511 35.0293 112.511 38.4218C112.511 42.5372 109.169 45.4292 104.157 45.4292H96.6807L99.4558 33.0828Z" fill="#222222"/>
<path d="M147.231 66.4236H156.038L150.742 26.2979H140.859L117.638 66.4236H126.559L131.826 56.8579H146.24L147.231 66.4236ZM143.663 34.6678H144.201L145.843 50.3789H135.054L143.663 34.6678Z" fill="#222222"/>
<path d="M177.222 66.4236L199.509 26.2979H189.88L174.192 56.9136H173.682L170.822 26.2979H161.732L166.886 66.4236H177.222Z" fill="#222222"/>
<path d="M223.213 59.2494H204.721L206.93 49.489H224.346L225.762 42.8431H208.318L210.442 33.4721H228.905L230.406 26.2979H203.334L194.64 66.4236H221.741L223.213 59.2494Z" fill="#222222"/>
<path d="M243.675 59.1103H237.658L244.822 26.2979H236.242L227.548 66.4236H236.242L243.675 59.1103Z" fill="#222222"/>
<path d="M23.6899 61.5084C23.2059 61.6866 22.7482 61.8643 22.3174 62.0406C22.7393 61.861 23.1969 61.6832 23.6899 61.5084C38.2468 56.1489 76.5955 50.3041 124.978 66.4235C174.97 83.0789 235.822 63.1363 260 51.0831C238.054 69.7108 180.326 101.049 124.978 77.381C71.7232 54.6077 36.2374 57.0606 23.6899 61.5084Z" fill="#3FB195"/>
<path d="M39.5132 0.511926C39.907 0.383947 40.5634 0 41.0885 0H41.4823C42.0074 0 42.5325 0.383947 42.795 0.767893L44.3703 2.81559C44.5016 3.19954 45.4205 3.58348 45.9456 3.58348L50.5401 5.11925C51.0652 5.11925 51.459 5.5032 51.8529 5.88714L53.2969 8.31878C53.822 8.44677 53.4281 9.08668 53.2969 9.47062L50.4089 12.4142C50.1463 12.6702 49.8838 13.438 49.4899 13.822L48.9648 16.3816V18.1733L49.4899 19.3252C49.8838 19.8371 50.015 20.605 50.015 21.1169L50.1463 21.8848C50.1463 22.2687 50.1463 23.1646 50.015 23.6765L48.571 26.8761C48.4398 27.26 47.9147 27.8999 47.7834 28.4119L44.7641 35.8348C44.3703 36.3467 44.3703 37.2426 44.3703 37.7545C44.3703 38.2664 44.5016 38.9063 44.3703 39.2903C43.5827 44.0256 41.4823 55.5439 41.0885 56.5677L38.7256 63.2228C38.463 63.6067 38.0692 64.5026 38.0692 65.0145C37.6754 66.4223 37.9379 66.8062 37.1503 67.8301L32.687 75.125C32.5557 75.509 31.8994 76.1489 31.6368 76.2769L28.2237 79.9883C28.0924 80.3723 27.5673 80.8842 27.4361 81.3961L24.2855 89.203C24.1542 89.7149 24.1542 90.6108 24.1542 90.8667V99.0575C24.1542 99.6974 23.8917 100.209 23.7604 100.721L23.2353 102.513C22.9728 102.897 22.4477 103.153 22.0539 102.897L20.4786 102.129C20.2161 101.873 19.4284 101.617 19.0346 101.105L18.3782 100.721C18.247 100.209 17.9844 99.6974 17.9844 99.0575L18.3782 96.8818C18.3782 96.3699 18.3782 95.73 18.247 95.2181L16.4091 91.3787C16.2779 90.8667 15.884 90.3548 15.2277 89.8429L11.2895 86.3874C10.7644 85.8755 10.108 85.7475 9.58293 85.7475H9.45166C9.05784 85.7475 8.40148 85.3635 8.13893 84.8516L5.25092 80.8842C4.98838 80.5002 4.8571 79.8603 4.59456 79.3484L3.80692 76.5328C3.80692 76.1489 3.54437 75.253 3.54437 74.8691V71.9255C3.54437 71.4136 3.4131 70.9016 2.88801 70.7737L0.656366 68.9819C0.131273 68.8539 0 67.9581 0 67.5741L0.131273 66.1663C0.131273 65.6544 0.525092 65.0145 0.525092 64.5026L0.918912 62.4549C0.918912 62.0709 1.444 61.431 1.444 61.0471L1.83782 60.7911C2.23164 60.2792 2.49419 59.7673 2.23164 59.2553L1.83782 50.5526C1.83782 50.1687 1.83782 49.5288 2.23164 49.1448L17.4593 23.0366C17.7219 22.5247 18.247 21.8848 18.6408 21.5009L22.0539 17.6614C22.4477 17.4055 22.9728 16.7656 23.2353 16.3816L27.0423 8.06282C27.1735 7.67888 27.9612 7.16695 28.2237 7.16695L32.1619 5.75916C32.687 5.5032 33.3434 5.24723 34.131 5.11925L36.4939 4.73531C37.019 4.47935 37.5441 3.96742 37.5441 3.58348C37.5441 3.19954 37.6754 2.43164 38.0692 1.91972L39.5132 0.511926Z" fill="#3FB195"/>
</svg>
