<svg width="22" height="33" viewBox="0 0 22 33" fill="none" xmlns="http://www.w3.org/2000/svg">
<path d="M10.536 33C21.722 33 18.338 30.039 17.445 28.206C16.975 27.172 16.552 26.044 16.27 24.916C16.082 24.117 15.894 23.318 15.988 22.519C16.176 20.592 17.116 17.913 18.385 17.255C18.714 17.067 19.231 17.067 19.513 16.879C20.171 16.456 19.889 15.422 20.265 14.811C20.359 14.623 19.983 13.495 20.547 12.696C20.876 12.32 20.735 11.709 20.265 11.427C19.889 11.098 19.795 10.534 19.513 10.111C18.949 9.359 18.855 8.513 18.573 7.714C18.479 7.244 18.385 6.774 18.056 6.492C17.868 6.351 17.539 6.21 17.304 6.116C16.552 5.787 15.424 5.411 15.33 4.471C15.33 4.377 15.095 4.189 15.001 4.142C14.813 4.048 13.45 4.048 13.262 4.142C12.933 3.813 11.382 3.813 11.335 3.155C11.335 2.826 10.912 2.591 10.724 2.45C9.831 1.98 8.985 2.497 9.079 1.557C9.173 1.134 9.173 0.945998 8.938 0.617C8.515 0.0999978 8.092 0.382 7.81 0.757998C7.387 1.416 6.917 2.027 6.541 2.685C5.93 3.719 5.46 4.659 5.507 5.834C5.507 6.633 5.46 7.338 6.306 7.761C6.776 8.043 7.152 8.419 7.105 9.124C7.105 9.265 7.199 9.359 7.293 9.5C8.609 11.051 8.139 11.145 9.502 12.038C9.831 12.226 10.301 12.32 10.489 12.696C10.818 13.26 10.818 13.871 11.241 14.388C11.476 14.67 11.523 14.999 11.758 15.281C12.04 15.516 12.322 15.892 12.369 16.315C12.416 16.597 12.228 16.879 12.228 17.161C12.228 17.255 12.322 17.443 12.322 17.49C12.322 17.631 12.181 17.725 12.181 17.819C12.181 18.148 12.369 18.195 12.369 18.712C12.369 18.994 12.322 19.229 12.322 19.417C12.275 19.793 11.617 21.438 10.395 22.989C9.079 24.728 8.703 25.104 8.045 25.903C7.199 26.89 6.024 27.219 4.896 27.736C2.405 29.475 0.854 29.663 2.217 31.167C3.157 32.201 4.849 32.53 6.118 32.718C7.669 32.953 9.126 33 10.536 33Z" fill="#FFFFFF"/>
</svg>
