<svg width="24" height="24" viewBox="0 0 24 24" fill="none" xmlns="http://www.w3.org/2000/svg">
<path fill-rule="evenodd" clip-rule="evenodd" d="M12 21C7.032 21 3 16.977 3 12C3 7.032 7.032 3 12 3C16.977 3 21 7.032 21 12C21 16.977 16.977 21 12 21ZM14.8708 15.339C14.9788 15.402 15.0958 15.438 15.2218 15.438C15.4468 15.438 15.6718 15.321 15.7978 15.105C15.9868 14.79 15.8878 14.376 15.5638 14.178L12.3598 12.27V8.11201C12.3598 7.73401 12.0538 7.43701 11.6848 7.43701C11.3158 7.43701 11.0098 7.73401 11.0098 8.11201V12.657C11.0098 12.891 11.1358 13.107 11.3428 13.233L14.8708 15.339Z" fill="#3FB195"/>
</svg>
