<svg width="24" height="24" viewBox="0 0 24 24" fill="none" xmlns="http://www.w3.org/2000/svg">
<g id="Iconly/Bulk/Calling">
<g id="Group">
<g id="Calling">
<path id="Fill 1" opacity="0.4" d="M14.4183 5.48988C13.9422 5.40194 13.505 5.70573 13.4144 6.17041C13.3238 6.63509 13.6285 7.08878 14.0916 7.17972C15.4859 7.45153 16.5624 8.53079 16.8353 9.92983V9.93083C16.913 10.3336 17.2675 10.6264 17.6759 10.6264C17.7306 10.6264 17.7854 10.6214 17.8412 10.6114C18.3043 10.5184 18.609 10.0657 18.5184 9.60006C18.1111 7.51049 16.5027 5.8966 14.4183 5.48988Z" fill="#3FB195"/>
<path id="Fill 3" opacity="0.4" d="M14.3558 2.00793C14.1328 1.97595 13.9087 2.04191 13.7304 2.18381C13.5472 2.32771 13.4326 2.53557 13.4078 2.76841C13.355 3.23908 13.6946 3.66479 14.1646 3.71776C17.4063 4.07951 19.9259 6.60477 20.2904 9.85654C20.3392 10.2922 20.7047 10.621 21.1409 10.621C21.1738 10.621 21.2057 10.619 21.2385 10.615C21.4666 10.59 21.6698 10.4771 21.8132 10.2972C21.9556 10.1174 22.0203 9.89351 21.9944 9.66467C21.5403 5.60746 18.4002 2.45862 14.3558 2.00793Z" fill="#3FB195"/>
</g>
</g>
<g id="Call">
<path id="Stroke 1" fill-rule="evenodd" clip-rule="evenodd" d="M11.5564 12.4475C15.3355 16.2256 16.1928 11.8548 18.599 14.2593C20.9188 16.5784 22.2521 17.043 19.313 19.9813C18.9448 20.2772 16.6057 23.8367 8.38541 15.6186C0.164073 7.39958 3.7215 5.05811 4.01745 4.69006C6.96366 1.74364 7.42029 3.08468 9.74004 5.40379C12.1462 7.80931 7.77725 8.66945 11.5564 12.4475Z" fill="#3FB195"/>
</g>
</g>
</svg>
