<svg width="49" height="34" viewBox="0 0 49 34" fill="none" xmlns="http://www.w3.org/2000/svg">
<path d="M3.003 5.539H45.961C46.055 5.539 46.102 5.492 46.102 5.445V4.693C46.102 4.646 46.055 4.599 45.961 4.599C44.457 4.599 42.953 2.625 42.953 0.838998C42.953 0.791998 42.906 0.744999 42.812 0.744999H6.152C6.058 0.744999 6.011 0.791998 6.011 0.885997C6.011 2.672 4.507 4.599 3.003 4.599C2.909 4.599 2.862 4.646 2.862 4.74V5.398C2.862 5.492 2.909 5.539 3.003 5.539ZM48.123 8.782C46.431 8.782 45.068 8.124 45.068 6.62C45.068 6.526 45.021 6.479 44.927 6.479H3.849C3.849 8.077 2.533 8.782 0.841 8.782C0.747 8.782 0.7 8.876 0.7 8.97V9.581C0.7 9.628 0.747 9.722 0.841 9.722H48.123C48.217 9.722 48.264 9.628 48.264 9.581V8.97C48.264 8.876 48.217 8.782 48.123 8.782ZM44.504 10.615H4.413C4.366 10.615 4.319 10.709 4.319 10.756V31.859C4.319 31.906 4.366 32 4.413 32H12.591V31.06H14.236V29.415H10.852V26.83C10.852 26.36 11.087 25.984 11.463 25.749V22.882H10.852V20.297C10.852 19.592 11.463 18.981 12.215 18.981C13.014 18.981 13.625 19.592 13.625 20.297V22.318C14.33 22.177 14.8 21.801 14.8 21.096V20.767H15.364V20.297C15.364 19.545 16.022 18.981 16.774 18.981C17.526 18.981 18.137 19.545 18.137 20.297V20.767H20.252V19.31H28.618V20.767H30.827V20.297C30.827 19.545 31.438 18.981 32.19 18.981C32.942 18.981 33.6 19.545 33.6 20.297V20.767H34.164V21.049C34.164 21.754 34.634 22.224 35.339 22.365V20.297C35.339 19.592 35.95 18.981 36.749 18.981C37.501 18.981 38.112 19.592 38.112 20.297V22.882H37.219V25.608C37.736 25.796 38.112 26.266 38.112 26.83V29.415H34.728V31.06H36.279V32H44.504C44.551 32 44.598 31.953 44.645 31.953V31.859V10.756C44.645 10.709 44.598 10.615 44.504 10.615ZM9.066 16.443H6.293V13.858C6.293 13.153 6.951 12.542 7.703 12.542C8.455 12.542 9.066 13.153 9.066 13.858V16.443ZM13.625 16.443H10.852V13.858C10.852 13.153 11.463 12.542 12.215 12.542C13.014 12.542 13.625 13.153 13.625 13.858V16.443ZM18.137 16.443H15.364V13.858C15.364 13.153 16.022 12.542 16.774 12.542C17.526 12.542 18.137 13.153 18.137 13.858V16.443ZM33.6 16.443H30.827V13.858C30.827 13.153 31.438 12.542 32.19 12.542C32.942 12.542 33.6 13.153 33.6 13.858V16.443ZM38.112 16.443H35.339V13.858C35.339 13.153 35.95 12.542 36.749 12.542C37.501 12.542 38.112 13.153 38.112 13.858V16.443ZM42.624 16.443H39.851V13.858C39.851 13.153 40.509 12.542 41.261 12.542C42.013 12.542 42.624 13.153 42.624 13.858V16.443ZM28.618 16.443H20.252V12.824H28.618V16.443ZM9.066 22.882H6.293V20.297C6.293 19.592 6.951 18.981 7.703 18.981C8.455 18.981 9.066 19.592 9.066 20.297V22.882ZM42.624 22.882H39.851V20.297C39.851 19.592 40.509 18.981 41.261 18.981C42.013 18.981 42.624 19.592 42.624 20.297V22.882ZM35.339 32.94V32H33.788V27.018H36.514V26.078C35.386 26.078 34.352 25.561 33.929 24.433H36.514V23.493C35.057 23.493 33.365 22.929 33.365 21.425H15.599C15.599 22.929 13.86 23.493 12.403 23.493V24.433H14.988C14.612 25.561 13.578 26.078 12.403 26.078V27.018H15.176V32H13.531V32.94H12.262V33.927H36.608V32.94H35.339ZM9.066 29.415H6.293V26.83C6.293 26.125 6.951 25.514 7.703 25.514C8.455 25.514 9.066 26.125 9.066 26.83V29.415ZM42.624 29.415H39.851V26.83C39.851 26.125 40.509 25.514 41.261 25.514C42.013 25.514 42.624 26.125 42.624 26.83V29.415ZM16.633 29.932C16.633 28.71 17.573 27.77 18.748 27.77C19.923 27.77 20.863 28.71 20.863 29.932V32H16.633V29.932ZM24.482 27.77C25.657 27.77 26.597 28.71 26.597 29.932V32H22.367V29.932C22.367 28.71 23.307 27.77 24.482 27.77ZM30.216 27.77C31.391 27.77 32.331 28.71 32.331 29.932V32H28.101V29.932C28.101 28.71 29.041 27.77 30.216 27.77Z" fill="#FFFFFF"/>
</svg>
