<svg width="20" height="38" viewBox="0 0 20 38" fill="none" xmlns="http://www.w3.org/2000/svg">
<path d="M19.5 12.808H14.518L17.197 0.728998L15.646 0.399999L12.92 12.808H1.17C0.935 12.808 0.7 12.996 0.7 13.278C0.7 13.513 0.935 13.748 1.17 13.748H2.016L2.204 20.093L3.097 23.195L3.708 37.577C3.708 37.812 3.943 38 4.178 38H16.539C16.774 38 17.009 37.812 17.009 37.577L17.62 23.195L18.466 20.093L18.748 13.748H19.5C19.735 13.748 19.923 13.513 19.923 13.278C19.923 12.996 19.735 12.808 19.5 12.808ZM12.685 13.748L11.698 18.401C11.134 18.354 10.852 18.166 10.523 18.025C10.1 17.837 9.677 17.602 8.784 17.602C7.891 17.602 7.421 17.837 7.045 18.025C6.716 18.213 6.387 18.401 5.682 18.401C5.024 18.401 4.695 18.213 4.366 18.025C4.037 17.884 3.661 17.696 3.097 17.649L2.956 13.748H12.685ZM17.62 18.354C17.244 18.307 17.009 18.166 16.774 18.025C16.351 17.837 15.881 17.602 14.988 17.602C14.236 17.602 13.813 17.79 13.39 17.978L14.33 13.748H17.761L17.62 18.354ZM16.68 22.819L16.069 37.06H4.648L4.037 22.819L3.144 19.717L3.097 18.589C3.473 18.636 3.708 18.73 3.943 18.871C4.366 19.106 4.789 19.247 5.682 19.247C6.622 19.247 7.045 19.106 7.421 18.871C7.797 18.683 8.126 18.542 8.784 18.542C9.489 18.542 9.771 18.683 10.147 18.871C10.57 19.106 10.993 19.247 11.933 19.247C12.779 19.247 13.249 19.106 13.672 18.871C14.001 18.683 14.33 18.542 14.988 18.542C15.646 18.542 15.975 18.683 16.351 18.871C16.68 19.059 17.009 19.2 17.573 19.247V19.717L16.68 22.819ZM6.669 28.6C7.421 28.6 8.032 27.989 8.032 27.237C8.032 26.485 7.421 25.921 6.669 25.921C5.964 25.921 5.306 26.485 5.306 27.237C5.306 27.989 5.964 28.6 6.669 28.6ZM13.813 26.438C13.014 26.438 12.45 27.002 12.45 27.754C12.45 28.506 13.014 29.164 13.813 29.164C14.565 29.164 15.129 28.506 15.129 27.754C15.129 27.002 14.565 26.438 13.813 26.438ZM10.006 30.809C10.805 30.809 11.369 30.198 11.369 29.446C11.369 28.788 10.805 28.13 10.006 28.13C9.301 28.13 8.69 28.788 8.69 29.446C8.69 30.198 9.301 30.809 10.006 30.809ZM6.575 32.501C7.28 32.501 7.938 31.89 7.938 31.185C7.938 30.386 7.28 29.775 6.575 29.775C5.823 29.775 5.212 30.386 5.212 31.185C5.212 31.89 5.823 32.501 6.575 32.501ZM13.531 32.689C14.33 32.689 14.941 32.078 14.941 31.326C14.941 30.574 14.33 29.963 13.531 29.963C12.826 29.963 12.215 30.574 12.215 31.326C12.215 32.078 12.826 32.689 13.531 32.689ZM10.194 31.937C9.489 31.937 8.878 32.501 8.878 33.253C8.878 34.005 9.489 34.569 10.194 34.569C10.946 34.569 11.557 34.005 11.557 33.253C11.557 32.501 10.946 31.937 10.194 31.937ZM6.951 33.676C6.246 33.676 5.588 34.334 5.588 35.039C5.588 35.791 6.246 36.402 6.951 36.402C7.703 36.402 8.314 35.791 8.314 35.039C8.314 34.334 7.703 33.676 6.951 33.676ZM13.813 33.723C13.014 33.723 12.45 34.334 12.45 35.039C12.45 35.791 13.014 36.402 13.813 36.402C14.565 36.402 15.129 35.791 15.129 35.039C15.129 34.334 14.565 33.723 13.813 33.723Z" fill="#FFFFFF"/>
</svg>
